# AST/ASF file generated using VICON BodyLanguage
# -----------------------------------------------
:version 1.10
:name VICON
:units
  mass 1.0
  length 0.45
  angle deg
:documentation
   .ast/.asf automatically generated from VICON data using
   VICON BodyBuilder and BodyLanguage model FoxedUp or BRILLIANT.MOD
:root
   order TX TY TZ RX RY RZ
   axis XYZ
   position 0 0 0  
   orientation 0 0 0 
:bonedata
  begin
     id 1 
     name lhipjoint
     direction 0.578396 -0.714046 0.394458 
     length 2.21935 
     axis 0 0 0  XYZ
  end
  begin
     id 2 
     name lfemur
     direction 0.34202 -0.939693 0  
     length 6.39105  
     axis 0 0 20  XYZ
    dof rx ry rz
    limits (-160.0 20.0)
           (-70.0 70.0)
           (-60.0 70.0)
  end
  begin
     id 3 
     name ltibia
     direction 0.34202 -0.939693 0   
     length 6.99037   
     axis 0 0 20   XYZ
    dof rx
    limits (-10.0 170.0)
  end
  begin
     id 4 
     name lfoot
     direction 0.0582372 -0.160005 0.985397   
     length 2.06111   
     axis -90 7.62852e-016 20   XYZ
    dof rx rz
    limits (-45.0 90.0)
           (-70.0 20.0)
  end
  begin
     id 5 
     name ltoes
     direction 1.53556e-011 -4.21875e-011 1   
     length 1.04074   
     axis -90 7.62852e-016 20   XYZ
    dof rx
    limits (-90.0 20.0)
  end
  begin
     id 6 
     name rhipjoint
     direction -0.558179 -0.726269 0.40121   
     length 2.182  
     axis 0 0 0  XYZ 
  end
  begin
     id 7 
     name rfemur
     direction -0.34202 -0.939693 0   
     length 6.51172   
     axis 0 0 -20   XYZ
    dof rx ry rz
    limits (-160.0 20.0)
           (-70.0 70.0)
           (-70.0 60.0)
  end
  begin
     id 8 
     name rtibia
     direction -0.34202 -0.939693 0   
     length 7.02607   
     axis 0 0 -20   XYZ
    dof rx
    limits (-10.0 170.0)
 end
 begin
     id 9 
     name rfoot
     direction -0.0788856 -0.216737 0.973038   
     length 1.96734  
     axis -90 -7.62852e-016 -20   XYZ
    dof rx rz
    limits (-45.0 90.0)
           (-20.0 70.0)
  end
  begin
     id 10 
     name rtoes
     direction -1.53567e-011 -4.21783e-011 1   
     length 0.990825   
     axis -90 -7.62852e-016 -20   XYZ
    dof rx
    limits (-90.0 20.0)
  end
  begin
     id 11 
     name lowerback
     direction 0.00668177 0.999323 -0.0361741   
     length 1.7655   
     axis 0 0 0   XYZ
    dof rx ry rz
    limits (-20.0 45.0)
           (-30.0 30.0)
           (-30.0 30.0)
  end
  begin
     id 12 
     name upperback
     direction -0.00222086 0.99851 0.0545167   
     length 1.74912   
     axis 0 0 0   XYZ
    dof rx ry rz
    limits (-20.0 45.0)
           (-30.0 30.0)
           (-30.0 30.0)
  end
  begin
     id 13 
     name thorax
     direction -0.00733971 0.997496 0.0703443   
     length 1.75715   
     axis 0 0 0   XYZ
    dof rx ry rz
    limits (-20.0 45.0)
           (-30.0 30.0)
           (-30.0 30.0)
  end
  begin
     id 14 
     name lowerneck
     direction 0.0279797 0.994795 0.0979765   
     length 1.46939   
     axis 0 0 0   XYZ
    dof rx ry rz
    limits (-20.0 45.0)
           (-30.0 30.0)
           (-30.0 30.0)
  end
  begin
     id 15 
     name upperneck
     direction 0.00339187 0.976776 -0.214238   
     length 1.48018   
     axis 0 0 0   XYZ
    dof rx ry rz
    limits (-20.0 45.0)
           (-30.0 30.0)
           (-30.0 30.0)
  end
  begin
     id 16
     name head
     direction -0.00263506 0.996603 -0.0823096  
     length 1.4976  
     axis 0 0 0   XYZ
    dof rx ry rz
    limits (-20.0 45.0)
           (-30.0 30.0)
           (-30.0 30.0)
  end
  begin
     id 17 
     name lclavicle
     direction 0.894044 0.44508 -0.0508781  
     length 3.03024  
     axis 0 0 0   XYZ
    dof ry rz
    limits (-20.0 10.0)
           (0.0 20.0)
  end
  begin
     id 18 
     name lhumerus
     direction 1 -4.48961e-011 -2.39475e-018   
     length 4.4661   
     axis 180 -30 -90   XYZ
    dof rx ry rz
    limits (-60.0 90.0)
           (-90.0 90.0)
           (-90.0 90.0)
  end
  begin
     id 19
     name lradius
     direction 1 -4.48961e-011 9.29328e-028   
     length 3.41414   
     axis 180 -30 -90   XYZ
    dof rx
    limits (-10.0 170.0)
  end
  begin
     id 20
     name lwrist
     direction 1 -4.48985e-011 1.53461e-026   
     length 1.70707   
     axis -1.09697e-014 90 90   XYZ
    dof ry
    limits (-180.0 0.0)
 end
  begin
     id 21 
     name lhand
     direction 1 -4.48966e-011 3.06923e-026   
     length 0.328298   
     axis -1.95843e-014 90 90   XYZ
    dof rx rz
    limits (-90.0 90.0)
           (-45.0 45.0)
  end
  begin
     id 22 
     name lfingers
     direction 1 -4.48893e-011 6.13845e-026   
     length 0.264682   
     axis -3.91686e-014 90 90   XYZ
    dof rx
    limits (0.0 90.0)
  end
  begin
     id 23
     name lthumb
     direction 0.707107 -6.34876e-011 0.707107   
     length 0.380032   
     axis -90 45 2.85299e-015   XYZ
    dof rx rz
    limits (-45.0 45.0)
           (-45.0 45.0)
  end
  begin
     id 24 
     name rclavicle
     direction -0.936955 0.347862 -0.0332887   
     length 3.26927  
     axis 0 0 0   XYZ 
    dof ry rz
    limits (-10.0 20.0)
           (-20.0 0.0)
  end
  begin
     id 25 
     name rhumerus
     direction -1 -4.4896e-011 1.78637e-018  
     length 4.40431   
     axis 180 30 90   XYZ
    dof rx ry rz
    limits (-90.0 60.0)
           (-90.0 90.0)
           (-90.0 90.0)
  end
  begin
     id 26 
     name rradius
     direction -1 -4.48955e-011 9.34036e-027   
     length 3.04688   
     axis 180 30 90   XYZ
    dof rx
    limits (-10.0 170.0)
  end
  begin
     id 27 
     name rwrist
     direction -1 -4.49011e-011 1.53461e-026   
     length 1.52344   
     axis -1.09697e-014 -90 -90   XYZ
    dof ry
    limits (-180.0 0.0)
  end
  begin
     id 28
     name rhand
     direction -1 -4.48834e-011 3.06923e-026   
     length 0.500489   
     axis -1.95843e-014 -90 -90   XYZ
    dof rx rz
    limits (-90.0 90.0)
           (-45.0 45.0)
  end
  begin
     id 29
     name rfingers
     direction -1 -4.48967e-011 6.13845e-026   
     length 0.403507   
     axis -3.91686e-014 -90 -90   XYZ
    dof rx
    limits (0.0 90.0)
  end
  begin
     id 30
     name rthumb
     direction -0.707107 -6.34826e-011 0.707107   
     length 0.579358   
     axis -90 -45 -2.85299e-015   XYZ
    dof rx rz
    limits (-45.0 45.0)
           (-45.0 45.0)
  end
:hierarchy
  begin
    root lhipjoint rhipjoint lowerback
    lhipjoint lfemur
    lfemur ltibia
    ltibia lfoot
    lfoot ltoes
    rhipjoint rfemur
    rfemur rtibia
    rtibia rfoot
    rfoot rtoes
    lowerback upperback
    upperback thorax
    thorax lowerneck lclavicle rclavicle
    lowerneck upperneck
    upperneck head
    lclavicle lhumerus
    lhumerus lradius
    lradius lwrist
    lwrist lhand lthumb
    lhand lfingers
    rclavicle rhumerus
    rhumerus rradius
    rradius rwrist
    rwrist rhand rthumb
    rhand rfingers
  end

#!OML:ASF H:\IndianDance\Patient Classification 1\Patient 1\Session 1\dancer.ASF
:FULLY-SPECIFIED
:DEGREES
1253
root 1.38077 15.0075 -2.25188 -172.461 5.15859 -183.962
lowerback 7.32028 5.26158 -1.83797
upperback -8.4552 7.23504 -2.20434
thorax -13.2641 3.69801 -2.79363
lowerneck -14.987 12.2981 8.78056
upperneck 17.087 14.6832 0.0619602
head 8.41447 7.48214 0.41122
rclavicle -1.43094e-014 -1.55797e-014
rhumerus -17.4865 43.2905 -20.6517
rradius 123.454
rwrist -72.3678
rhand 41.174 1.19847
rfingers 7.12502
rthumb 63.361 -8.49095
lclavicle -1.43094e-014 -1.55797e-014
lhumerus 5.05007 -36.4109 -0.695844
lradius 71.3377
lwrist 16.5989
lhand 27.1743 11.6743
lfingers 7.12502
lthumb 51.1495 32.2719
rfemur -218.898 221.783 208.399
rtibia 102.965
rfoot 2.02439 -357.417
rtoes 2.34862
lfemur -22.3276 16.9665 -13.6904
ltibia 40.1572
lfoot -14.7916 1.6293
ltoes -19.0172
1254
root 1.28117 14.9482 -2.23953 -172.213 4.71236 -184.696
lowerback 6.94844 5.30267 -2.24502
upperback -8.52418 7.24714 -2.62664
thorax -13.1098 3.74164 -2.99764
lowerneck -14.8136 12.7616 8.90843
upperneck 16.9825 15.3051 0.0954099
head 8.38137 7.78901 0.475143
rclavicle -2.47285e-014 -2.49226e-014
rhumerus -18.5657 44.1837 -21.977
rradius 124.768
rwrist -70.0557
rhand 39.091 1.73515
rfingers 7.12502
rthumb 61.6375 -10.2029
lclavicle -2.47285e-014 -2.49226e-014
lhumerus 5.67614 -35.3954 -0.48475
lradius 68.3537
lwrist 14.4993
lhand 24.0178 11.2694
lfingers 7.12502
lthumb 48.2579 33.361
rfemur -218.504 223.313 210.292
rtibia 103.534
rfoot 2.49378 -354.762
rtoes 1.78995
lfemur -23.0293 16.8702 -15.0787
ltibia 40.5492
lfoot -16.322 1.94545
ltoes -18.5032
1255
root 1.18472 14.8913 -2.22615 -171.907 4.20991 -185.287
lowerback 6.56579 5.32422 -2.53033
upperback -8.60958 7.26238 -3.01449
thorax -12.9568 3.77976 -3.23015
lowerneck -14.6109 13.2121 9.04771
upperneck 16.8055 15.9109 0.121885
head 8.31994 8.08923 0.527866
rclavicle 8.18123e-015 2.64881e-014
rhumerus -19.6358 45.0952 -23.2695
rradius 126.026
rwrist -67.6528
rhand 36.7301 2.28791
rfingers 7.12502
rthumb 59.6338 -11.8711
lclavicle 8.18123e-015 2.64881e-014
lhumerus 6.40741 -34.3549 -0.335974
lradius 65.3309
lwrist 12.3367
lhand 20.9881 10.9356
lfingers 7.12502
lthumb 45.4544 34.2538
rfemur -218.128 224.614 212.456
rtibia 103.569
rfoot 3.02894 -352.243
rtoes 1.93237
lfemur -23.8644 16.6506 -16.2572
ltibia 41.1076
lfoot -17.6836 2.18678
ltoes -18.4782
1256
root 1.08888 14.8295 -2.21023 -171.593 3.67968 -185.734
lowerback 6.22301 5.34089 -2.68951
upperback -8.70116 7.29292 -3.36687
thorax -12.8237 3.8152 -3.49967
lowerneck -14.3919 13.6469 9.22445
upperneck 16.5855 16.4928 0.124826
head 8.24629 8.37861 0.561651
rclavicle -2.91344e-014 -1.07344e-014
rhumerus -20.6819 46.025 -24.5441
rradius 127.19
rwrist -65.1903
rhand 34.1388 2.84916
rfingers 7.12502
rthumb 57.3844 -13.412
lclavicle -2.91344e-014 -1.07344e-014
lhumerus 7.25886 -33.2819 -0.233224
lradius 62.2542
lwrist 10.1928
lhand 18.1883 10.6778
lfingers 7.12502
lthumb 42.8437 34.9788
rfemur -217.759 225.676 214.812
rtibia 103.148
rfoot 3.62319 -350.062
rtoes 2.7892
lfemur -24.8182 16.3651 -17.2147
ltibia 41.8679
lfoot -18.8503 2.25045
ltoes -18.5447
1257
root 0.997252 14.7738 -2.19432 -171.314 3.16221 -186.071
lowerback 5.95797 5.37439 -2.74182
upperback -8.79146 7.3583 -3.6999
thorax -12.7244 3.85651 -3.82078
lowerneck -14.181 14.0546 9.4529
upperneck 16.3632 17.0305 0.0990556
head 8.17988 8.64708 0.574101
rclavicle 3.55328e-015 -4.21423e-014
rhumerus -21.7224 46.9692 -25.8322
rradius 128.224
rwrist -62.6573
rhand 31.3654 3.4248
rfingers 7.12502
rthumb 54.9302 -14.7643
lclavicle 3.55328e-015 -4.21423e-014
lhumerus 8.2558 -32.1714 -0.160601
lradius 59.1283
lwrist 8.13017
lhand 15.6838 10.5343
lfingers 7.12502
lthumb 40.4949 35.6091
rfemur -217.255 226.507 217.187
rtibia 102.238
rfoot 4.21047 -348.391
rtoes 4.0547
lfemur -25.8009 16.1037 -17.9869
ltibia 42.7907
lfoot -19.8377 2.14164
ltoes -18.856
1258
root 0.908068 14.7182 -2.17795 -171.084 2.70477 -186.367
lowerback 5.7629 5.44077 -2.75445
upperback -8.87495 7.47006 -4.0352
thorax -12.6531 3.91466 -4.18132
lowerneck -13.966 14.4349 9.70746
upperneck 16.1303 17.5236 0.0788478
head 8.11063 8.89635 0.578091
rclavicle -3.87133e-014 3.83654e-014
rhumerus -22.7601 47.9214 -27.1483
rradius 129.1
rwrist -60.0252
rhand 28.4618 4.03697
rfingers 7.12502
rthumb 52.3189 -15.8774
lclavicle -3.87133e-014 3.83654e-014
lhumerus 9.39126 -31.0096 -0.088125
lradius 55.964
lwrist 6.17052
lhand 13.4309 10.4714
lfingers 7.12502
lthumb 38.3727 36.1682
rfemur -216.623 227.105 219.412
rtibia 100.954
rfoot 4.65417 -347.366
rtoes 5.28887
lfemur -26.789 15.9081 -18.6628
ltibia 43.8452
lfoot -20.6749 1.84986
ltoes -19.221
1259
root 0.822268 14.6637 -2.16255 -170.888 2.35706 -186.72
lowerback 5.58798 5.54782 -2.83132
upperback -8.95008 7.63057 -4.40584
thorax -12.5857 4.00162 -4.55521
lowerneck -13.7502 14.7837 10
upperneck 15.8919 17.9661 0.053206
head 8.04279 9.12289 0.568583
rclavicle -4.5472e-014 2.96189e-014
rhumerus -23.7877 48.8639 -28.5072
rradius 129.785
rwrist -57.2895
rhand 25.5318 4.70481
rfingers 7.12502
rthumb 49.6489 -16.7003
lclavicle -4.5472e-014 2.96189e-014
lhumerus 10.6397 -29.7792 -0.00161484
lradius 52.7891
lwrist 4.29397
lhand 11.3762 10.4067
lfingers 7.12502
lthumb 36.4304 36.6163
rfemur -215.858 227.459 221.328
rtibia 99.3424
rfoot 4.81195 -347.07
rtoes 6.06512
lfemur -27.7312 15.802 -19.3729
ltibia 44.9126
lfoot -21.3735 1.4275
ltoes -19.6288
1260
root 0.740277 14.6123 -2.14986 -170.703 2.14925 -187.183
lowerback 5.37574 5.69323 -3.01953
upperback -9.01691 7.83806 -4.82734
thorax -12.4909 4.12339 -4.9255
lowerneck -13.5307 15.1027 10.3011
upperneck 15.6384 18.3629 0.0436437
head 7.96786 9.32936 0.555774
rclavicle -5.56597e-015 1.23246e-014
rhumerus -24.7683 49.7838 -29.8884
rradius 130.259
rwrist -54.5135
rhand 22.6386 5.44264
rfingers 7.12502
rthumb 46.9848 -17.2303
lclavicle -5.56597e-015 1.23246e-014
lhumerus 11.9366 -28.4469 0.144065
lradius 49.6386
lwrist 2.44349
lhand 9.48093 10.2658
lfingers 7.12502
lthumb 34.6339 36.9065
rfemur -214.959 227.548 222.837
rtibia 97.4455
rfoot 4.60978 -347.48
rtoes 6.16381
lfemur -28.5983 15.7886 -20.1926
ltibia 45.918
lfoot -22.0119 0.933278
ltoes -19.9656
1261
root 0.661735 14.5643 -2.14056 -170.516 2.09908 -187.757
lowerback 5.10376 5.87014 -3.31399
upperback -9.08074 8.08969 -5.29987
thorax -12.3604 4.27999 -5.2913
lowerneck -13.3064 15.3974 10.5837
upperneck 15.3799 18.7232 0.0743661
head 7.8841 9.52082 0.551664
rclavicle -7.85696e-014 6.75868e-015
rhumerus -25.6653 50.6794 -31.2653
rradius 130.519
rwrist -51.8503
rhand 19.8586 6.2154
rfingers 7.12502
rthumb 44.4033 -17.5154
lclavicle -7.85696e-014 6.75868e-015
lhumerus 13.2108 -26.9962 0.376743
lradius 46.5708
lwrist 0.5852
lhand 7.75328 10.0428
lfingers 7.12502
lthumb 32.9924 37.0446
rfemur -213.922 227.351 223.906
rtibia 95.2865
rfoot 4.07472 -348.502
rtoes 5.61858
lfemur -29.3504 15.8871 -21.1435
ltibia 46.7811
lfoot -22.6181 0.4827
ltoes -20.472
1262
root 0.586534 14.5214 -2.13462 -170.327 2.21223 -188.415
lowerback 4.77243 6.06799 -3.68295
upperback -9.14732 8.37845 -5.8098
thorax -12.1992 4.46608 -5.65343
lowerneck -13.0679 15.6735 10.8273
upperneck 15.1132 19.0596 0.150318
head 7.78649 9.70258 0.560528
rclavicle 4.23908e-014 -6.87795e-014
rhumerus -26.4254 51.5593 -32.5981
rradius 130.582
rwrist -49.5197
rhand 17.2082 6.97843
rfingers 7.12502
rthumb 41.926 -17.6364
lclavicle 4.23908e-014 -6.87795e-014
lhumerus 14.3794 -25.4045 0.733247
lradius 43.643
lwrist -1.25322
lhand 6.19664 9.76183
lfingers 7.12502
lthumb 31.5107 37.0647
rfemur -212.741 226.854 224.552
rtibia 92.8689
rfoot 3.34174 -349.996
rtoes 4.75761
lfemur -29.966 16.0927 -22.1996
ltibia 47.4675
lfoot -23.2151 0.164538
ltoes -21.2951
1263
root 0.513874 14.4838 -2.13101 -170.138 2.48362 -189.103
lowerback 4.40224 6.27945 -4.06217
upperback -9.22331 8.70096 -6.33597
thorax -12.0212 4.67391 -6.0254
lowerneck -12.819 15.9332 11.0139
upperneck 14.8515 19.3789 0.271848
head 7.67812 9.87685 0.585907
rclavicle -1.93815e-015 1.39149e-014
rhumerus -27.0143 52.4301 -33.8583
rradius 130.471
rwrist -47.7542
rhand 14.6618 7.69593
rfingers 7.12502
rthumb 39.5332 -17.6693
lclavicle -1.93815e-015 1.39149e-014
lhumerus 15.3904 -23.6686 1.23239
lradius 40.9076
lwrist -2.97139
lhand 4.89841 9.45574
lfingers 7.12502
lthumb 30.2731 36.9932
rfemur -211.417 226.052 224.838
rtibia 90.1857
rfoot 2.56264 -351.829
rtoes 3.86394
lfemur -30.4567 16.3921 -23.3042
ltibia 47.9887
lfoot -23.8031 -0.0153479
ltoes -22.3541
1264
root 0.44258 14.4511 -2.12837 -169.957 2.9024 -189.762
lowerback 4.02858 6.49445 -4.39945
upperback -9.31896 9.04396 -6.84494
thorax -11.8571 4.89099 -6.4032
lowerneck -12.559 16.1847 11.1464
upperneck 14.6225 19.6942 0.428437
head 7.56981 10.0492 0.627061
rclavicle 4.28381e-014 3.18055e-014
rhumerus -27.3929 53.3162 -35.0106
rradius 130.225
rwrist -46.75
rhand 12.2822 8.35153
rfingers 7.12502
rthumb 37.2876 -17.638
lclavicle 4.28381e-014 3.18055e-014
lhumerus 16.1773 -21.8044 1.89181
lradius 38.4123
lwrist -4.44425
lhand 3.912 9.22567
lfingers 7.12502
lthumb 29.3317 36.9319
rfemur -209.958 224.953 224.841
rtibia 87.2353
rfoot 1.88484 -353.825
rtoes 3.37157
lfemur -30.8572 16.7725 -24.3936
ltibia 48.3941
lfoot -24.3693 -0.0304095
ltoes -23.65
1265
root 0.371355 14.4223 -2.12552 -169.802 3.45303 -190.329
lowerback 3.68255 6.71289 -4.63102
upperback -9.43445 9.40378 -7.30788
thorax -11.7194 5.1075 -6.79318
lowerneck -12.3078 16.4297 11.2236
upperneck 14.458 20.0081 0.608588
head 7.47623 10.2196 0.684108
rclavicle 5.10877e-014 4.21423e-014
rhumerus -27.5586 54.2239 -36.0364
rradius 129.898
rwrist -46.6236
rhand 10.079 8.90778
rfingers 7.12502
rthumb 35.2013 -17.601
lclavicle 5.10877e-014 4.21423e-014
lhumerus 16.7231 -19.8357 2.70262
lradius 36.1653
lwrist -5.58784
lhand 3.22052 9.11399
lfingers 7.12502
lthumb 28.6713 36.9338
rfemur -208.359 223.576 224.643
rtibia 84.0211
rfoot 1.32697 -355.885
rtoes 3.32948
lfemur -31.207 17.2571 -25.4041
ltibia 48.7516
lfoot -24.8998 0.17283
ltoes -25.3792
1266
root 0.298658 14.3964 -2.12163 -169.675 4.1025 -190.753
lowerback 3.38385 6.93477 -4.70045
upperback -9.56925 9.77576 -7.70354
thorax -11.6122 5.31402 -7.20394
lowerneck -12.0806 16.6671 11.2634
upperneck 14.3805 20.3183 0.784233
head 7.41178 10.3858 0.749135
rclavicle 1.05058e-013 -1.37559e-013
rhumerus -27.5385 55.1356 -36.9264
rradius 129.548
rwrist -47.3928
rhand 8.09141 9.33075
rfingers 7.12502
rthumb 33.3139 -17.6027
lclavicle 1.05058e-013 -1.37559e-013
lhumerus 17.0393 -17.8403 3.61309
lradius 34.1836
lwrist -6.31536
lhand 2.76922 9.14618
lfingers 7.12502
lthumb 28.24 37.0381
rfemur -206.644 221.965 224.331
rtibia 80.5538
rfoot 0.881016 -357.948
rtoes 3.71778
lfemur -31.5452 17.8001 -26.2729
ltibia 49.1268
lfoot -25.3829 0.483206
ltoes -27.0919
